<?xml version="1.0" standalone="no"?>
<!DOCTYPE svg PUBLIC "-//W3C//DTD SVG 20010904//EN"
 "http://www.w3.org/TR/2001/REC-SVG-20010904/DTD/svg10.dtd">
<svg version="1.0" xmlns="http://www.w3.org/2000/svg"
 width="700.000000pt" height="700.000000pt" viewBox="0 0 700.000000 700.000000"
 preserveAspectRatio="xMidYMid meet">
<metadata>
Created by potrace 1.14, written by Peter Selinger 2001-2017
</metadata>
<g transform="translate(0.000000,700.000000) scale(0.100000,-0.100000)"
fill="#000000" stroke="none">
<path d="M889 6984 c-97 -17 -201 -54 -309 -110 -295 -152 -508 -443 -565
-773 -23 -128 -22 -5090 0 -5208 85 -449 439 -800 884 -878 126 -22 5076 -22
5202 0 447 78 806 437 884 884 22 126 22 5076 0 5202 -38 221 -141 416 -304
580 -164 163 -359 266 -580 304 -121 22 -5094 21 -5212 -1z m2085 -845 c72
-22 243 -76 381 -120 137 -43 255 -79 262 -79 8 0 48 17 91 39 279 140 484
154 861 60 149 -37 282 -82 459 -156 129 -54 135 -58 204 -132 110 -118 215
-279 243 -371 4 -14 18 -37 31 -51 48 -51 45 -68 -80 -405 -119 -323 -133
-370 -190 -620 -40 -174 -64 -229 -188 -415 -80 -120 -89 -138 -202 -440 -323
-855 -876 -2301 -903 -2357 -28 -58 -56 -65 -206 -52 -502 43 -891 119 -1163
225 -226 88 -811 392 -881 457 -13 12 -25 35 -29 52 -5 31 332 1398 587 2381
l101 390 9 199 c5 109 16 228 24 264 8 35 43 130 77 211 82 196 98 245 174
536 100 384 100 383 137 405 18 11 40 20 51 20 10 0 78 -18 150 -41z"/>
<path d="M2891 5903 c-57 -218 -133 -497 -145 -532 -9 -24 -16 -45 -16 -47 0
-3 42 29 93 69 133 106 305 233 435 320 62 41 109 78 105 80 -5 2 -105 35
-223 72 -118 37 -220 70 -227 72 -7 3 -16 -11 -22 -34z"/>
<path d="M5015 4550 c-102 -47 -358 -107 -575 -134 -327 -42 -824 -26 -1590
49 -140 14 -264 27 -275 30 -19 4 -25 -15 -83 -238 -115 -444 -602 -2387 -602
-2402 0 -17 149 -102 400 -229 331 -168 491 -226 765 -281 192 -39 518 -83
645 -87 l84 -3 108 280 c175 450 496 1293 685 1795 97 256 188 491 204 523 16
31 70 118 119 193 53 79 96 157 105 187 12 41 75 322 75 334 0 7 -29 0 -65
-17z"/>
</g>
</svg>
